<?xml version="1.0" encoding="utf-8"?>
<!-- Generator: Adobe Illustrator 18.0.0, SVG Export Plug-In . SVG Version: 6.00 Build 0)  -->
<!DOCTYPE svg PUBLIC "-//W3C//DTD SVG 1.1//EN" "http://www.w3.org/Graphics/SVG/1.1/DTD/svg11.dtd">
<svg version="1.1" id="Calque_1" xmlns="http://www.w3.org/2000/svg" xmlns:xlink="http://www.w3.org/1999/xlink" x="0px" y="0px"
	 viewBox="0 0 566.9 258" enable-background="new 0 0 566.9 258" xml:space="preserve">
<g>
	<path fill="#001F5F" d="M228.6,122.7h-16.4c0,44.3-36.1,80.4-80.4,80.4h-1c-44.3,0-80.4-36.1-80.4-80.4H34
		c0,50.8,39.3,92.6,89.1,96.5h16.4C189.3,215.2,228.6,173.5,228.6,122.7L228.6,122.7z M228.6,122.7"/>
</g>
<g>
	<path fill="#001F5F" d="M238.8,80.4h22.7v2c0,23.1,9,34.8,27,35.3V137c-15.8-0.2-28.6-5.9-38.3-17.2c-9.8,11.2-22.6,16.9-38.3,17.2
		v-19.3c17.9-0.5,26.9-12.2,26.9-35.3V80.4z M242.5,65.9h-19.8V50.6H233c3.2,0,5.6,0.8,7.4,2.4c1.4,1.6,2.2,4,2.2,7.3V65.9z
		 M277.6,65.9h-19.8V50.6h10.3c3.2,0,5.7,0.8,7.3,2.4c1.5,1.6,2.2,4,2.2,7.3V65.9z"/>
</g>
<g>
	<path fill="#001F5F" d="M283.9,117.4h5.8c16.8-1.4,24.9-13.1,24.9-35v-2h22.8v2c-0.1,16.5-4.4,29.6-12.9,39.2
		c-8.2,9.3-20.8,14.4-35,15.4l-3.1,0.1h-2.5V117.4z M306.4,172.3h-19.8V157h10.3c3.3,0,5.7,0.8,7.3,2.4c1.6,1.6,2.3,4.1,2.2,7.3
		V172.3z M335.2,172.3h-19.8V157h10.3c3.3,0,5.8,0.8,7.4,2.4c1.6,1.6,2.2,4.1,2.1,7.3V172.3z M130.2,233c1.6,1.6,2.3,4.1,2.2,7.3
		v5.6 M161.2,245.9h-19.8v-15.3h10.3c3.3,0,5.8,0.8,7.4,2.4c1.6,1.6,2.2,4.1,2.1,7.3V245.9z M138.5,245.9h-19.8v-15.3H129
		c3.3,0,5.8,0.8,7.4,2.4c1.6,1.6,2.2,4.1,2.1,7.3V245.9z"/>
</g>
<g>
	<path fill="#001F5F" d="M447.8,117.4V137h-92.3v-9.6c0-2.7,1-5,3.1-6.9c2.2-1.9,4.6-2.9,7.2-2.9c15.1,0,29.8-0.2,45-0.2h3.8v-0.9
		v-1.2c0-8.8-3.1-16.3-9.2-22.5c-6-6.1-15.9-9.2-29.7-9.2c-4.6,0-8.3-0.1-12.9-0.1v-7.7c0-3.2,1.2-5.9,3.6-8.1h-0.2
		c2.5-2.3,5.4-3.5,8.7-3.5h4.4c16.9,0,30.2,4.6,39.9,13.8c9.7,9.1,14.6,21.5,14.6,37.2v2.1H447.8z"/>
</g>
<g>
	<path fill="#001F5F" d="M479.2,117.4h21.5V137h-23.1v-10.4c-3.6,7-8.9,10.4-16.1,10.4h-21.2v-19.6h17.1V28.3c0-2.9,1.1-5.6,3.2-8
		c2.1-2.3,4.7-3.5,7.8-3.5h10.8V117.4z"/>
</g>
<g>
	<path fill="#001F5F" d="M496.4,117.4h5.8c16.8-1.4,24.9-13.1,24.9-35v-2h22.8v2c-0.1,16.5-4.4,29.6-12.9,39.2
		c-8.2,9.3-20.8,14.4-35,15.4l-3.1,0.1h-2.5V117.4z M534.2,172.3h-19.8V157h10.3c3.3,0,5.8,0.8,7.4,2.4c1.6,1.7,2.3,4.1,2.2,7.3
		V172.3z"/>
</g>
<g>
	<path fill="#FFD100" d="M21.4,113.8V102l10.8-9.7c18.2-16.3,27-25.6,27.3-35.4c0-6.8-4.1-12.2-13.7-12.2c-7.2,0-13.5,3.6-17.8,6.9
		l-5.5-14c6.3-4.7,16-8.6,27.3-8.6C68.6,29,79,40.1,79,55.2c0,14-10.1,25.1-22.2,35.9l-7.7,6.4v0.3h31.4v16H21.4z"/>
	<path fill="#FFD100" d="M154.1,71.7c0,25.8-10.4,43.5-31.7,43.5c-21.5,0-31-19.4-31.1-42.9c0-24.1,10.3-43.2,31.8-43.2
		C145.4,29,154.1,48.9,154.1,71.7z M110.9,72.2c-0.1,19.1,4.5,28.2,12,28.2c7.6,0,11.7-9.5,11.7-28.5c0-18.5-4-28.2-11.8-28.2
		C115.7,43.8,110.8,52.9,110.9,72.2z"/>
</g>
<g>
	<path fill="#FFD100" d="M86.8,113.9h-0.3l-15.9,7.6l-3.2-14.6l22-10.3h16.2V180H86.8V113.9z"/>
	<path fill="#FFD100" d="M131.8,158.2c0-10,5.8-16.9,14.9-20.9v-0.4c-8.1-4.1-12-10.9-12-18.2c0-14.1,12.7-23.5,29.4-23.5
		c19.5,0,27.6,11.3,27.6,21.4c0,7.2-3.8,14.2-12,18.3v0.4c8.1,3.1,15.3,10,15.3,20.8c0,15.1-12.7,25.3-32,25.3
		C141.6,181.4,131.8,169.4,131.8,158.2z M174.9,157.5c0-7.3-5.4-11.7-13.1-13.7c-6.4,1.8-10.1,6.4-10.1,12.4
		c-0.1,6,4.5,11.7,11.8,11.7C170.4,167.9,174.9,163.4,174.9,157.5z M153,118c0,5.6,5.1,9.2,11.8,11.3c4.5-1.3,8.5-5.4,8.5-10.6
		c0-5.1-2.9-10.3-10.1-10.3C156.4,108.4,153,112.8,153,118z"/>
</g>
</svg>
